<?xml version="1.0" standalone="no"?>
<!DOCTYPE svg PUBLIC "-//W3C//DTD SVG 20010904//EN"
 "http://www.w3.org/TR/2001/REC-SVG-20010904/DTD/svg10.dtd">
<svg version="1.0" xmlns="http://www.w3.org/2000/svg"
 width="1024.000000pt" height="1024.000000pt" viewBox="0 0 1024.000000 1024.000000"
 preserveAspectRatio="xMidYMid meet">

<g transform="translate(0.000000,1024.000000) scale(0.100000,-0.100000)"
fill="#000000" stroke="none">
<path d="M1617 6689 c-115 -27 -206 -123 -242 -255 -2 -6 -30 -14 -62 -18
-231 -26 -426 -198 -479 -422 -12 -52 -15 -97 -11 -184 20 -420 295 -990 617
-1280 179 -161 402 -279 606 -321 l61 -12 7 -66 c18 -193 140 -391 291 -474
117 -66 283 -87 398 -52 233 71 390 280 414 551 l6 72 91 45 c114 57 186 125
216 203 19 52 20 76 20 345 0 233 -3 302 -16 352 -46 178 -192 330 -364 377
-55 15 -555 23 -650 10 -170 -24 -326 -159 -392 -341 -22 -62 -23 -75 -23
-376 l0 -313 26 -26 c31 -31 117 -54 204 -54 115 0 258 48 329 110 l37 33 -7
116 c-10 182 27 291 133 392 162 153 407 142 561 -25 22 -24 47 -57 55 -73 21
-39 47 -143 47 -184 0 -55 -27 -167 -52 -216 -54 -109 -180 -205 -308 -233
-30 -6 -63 -14 -72 -17 -16 -4 -18 -18 -18 -123 0 -129 -17 -204 -63 -282 -35
-59 -101 -120 -167 -155 -49 -25 -66 -28 -145 -28 -82 0 -97 3 -157 33 -73 36
-125 88 -164 164 -27 53 -54 148 -54 189 0 25 2 26 78 32 171 13 330 62 474
144 120 69 143 112 92 172 -36 43 -67 40 -159 -15 -322 -194 -722 -175 -1059
50 -316 212 -585 633 -691 1081 -44 186 -41 310 10 422 49 107 166 190 285
200 l58 6 20 -45 c44 -101 133 -167 255 -189 78 -15 138 -2 161 34 18 28 20
60 18 355 l-2 244 -29 29 c-26 26 -36 29 -88 28 -32 -1 -75 -5 -96 -10z"/>
<path d="M2718 6441 c-360 -94 -400 -593 -60 -754 62 -30 75 -32 172 -32 96 0
110 3 165 29 161 79 259 268 226 433 -32 163 -149 285 -316 329 -65 18 -105
17 -187 -5z"/>
<path d="M4338 6281 c-195 -41 -332 -232 -301 -418 15 -86 56 -164 115 -219
58 -54 110 -79 200 -94 160 -28 327 59 396 208 24 51 27 69 27 162 0 100 -2
108 -34 168 -42 77 -114 143 -188 171 -61 23 -160 34 -215 22z"/>
<path d="M4065 5421 c-74 -26 -94 -39 -152 -94 -95 -90 -142 -207 -143 -354
l0 -63 630 0 630 0 6 26 c11 42 -4 168 -26 227 -30 79 -95 162 -163 207 -98
66 -124 70 -446 70 -250 -1 -292 -3 -336 -19z"/>
<path d="M3012 5048 c-48 -16 -116 -81 -142 -135 -62 -128 -3 -290 125 -349
109 -51 252 -20 316 69 100 138 56 321 -96 399 -47 25 -153 33 -203 16z"/>
<path d="M5350 4718 l0 -141 -22 20 c-37 33 -64 43 -118 43 -62 0 -97 -17
-142 -70 -43 -49 -59 -102 -59 -188 0 -114 43 -200 115 -233 74 -33 174 -19
209 31 l15 22 4 -28 c3 -28 5 -29 66 -32 l62 -3 0 361 0 360 -65 0 -65 0 0
-142z m-65 -192 c44 -19 67 -64 68 -135 0 -71 -24 -123 -67 -146 -32 -17 -35
-17 -72 1 -50 24 -74 71 -74 145 0 63 27 114 70 136 31 16 34 16 75 -1z"/>
<path d="M5587 4830 c-34 -27 -37 -80 -7 -110 31 -31 93 -27 120 7 23 30 22
76 -3 101 -25 24 -80 26 -110 2z"/>
<path d="M5998 4807 c-148 -42 -238 -188 -225 -367 12 -183 124 -297 299 -308
156 -9 275 64 313 193 l14 45 -69 0 -70 0 -20 -40 c-28 -55 -71 -80 -138 -80
-115 0 -183 81 -186 220 -3 149 90 248 210 225 46 -8 124 -81 124 -114 0 -21
4 -22 67 -19 81 4 86 13 50 91 -29 64 -78 114 -135 139 -56 25 -172 32 -234
15z"/>
<path d="M3783 4803 c-10 -4 -13 -80 -13 -334 l0 -329 65 0 65 0 2 203 3 202
67 -155 67 -155 48 0 c55 0 49 -9 140 199 l48 109 3 -201 2 -202 65 0 65 0 -2
333 -3 332 -68 3 -68 3 -43 -93 c-24 -51 -63 -141 -87 -200 -40 -97 -59 -129
-59 -97 0 15 -149 360 -162 377 -10 12 -109 16 -135 5z"/>
<path d="M9240 4700 l0 -70 -40 0 -40 0 0 -50 0 -50 40 0 40 0 0 -152 c0 -136
2 -157 20 -186 33 -54 125 -78 194 -52 23 8 26 15 26 60 l0 50 -43 0 c-24 0
-48 5 -55 12 -8 8 -12 54 -12 140 l0 128 55 0 55 0 0 50 0 50 -55 0 -55 0 0
70 0 70 -65 0 -65 0 0 -70z"/>
<path d="M4630 4627 c-53 -17 -116 -86 -134 -148 -33 -110 -12 -214 58 -284
47 -47 98 -65 183 -65 98 0 193 63 205 135 3 18 -3 20 -55 23 -45 2 -59 0 -63
-13 -9 -22 -57 -45 -93 -45 -63 0 -101 30 -116 93 l-7 27 171 0 171 0 0 53 c0
104 -41 176 -121 218 -43 21 -140 25 -199 6z m162 -114 c15 -16 30 -40 33 -55
l7 -28 -106 0 -106 0 0 26 c0 15 12 38 29 55 41 41 106 41 143 2z"/>
<path d="M6595 4626 c-92 -40 -145 -128 -145 -241 0 -119 63 -215 159 -244 58
-17 150 -13 196 8 49 22 103 75 121 119 24 54 28 142 11 203 -33 112 -114 169
-239 169 -40 -1 -86 -7 -103 -14z m155 -101 c102 -53 80 -266 -30 -290 -130
-28 -196 213 -78 285 39 24 69 25 108 5z"/>
<path d="M7225 4631 c-11 -5 -32 -21 -47 -36 l-28 -28 0 32 0 31 -65 0 -65 0
0 -245 0 -245 64 0 65 0 3 166 3 166 33 29 c20 18 43 29 61 29 80 0 91 -27 91
-230 l0 -160 66 0 66 0 -4 193 c-3 218 -13 255 -78 289 -36 19 -128 24 -165 9z"/>
<path d="M7765 4628 c-11 -6 -32 -22 -47 -36 l-28 -26 0 32 0 32 -65 0 -65 0
0 -245 0 -245 65 0 65 0 0 156 c0 128 3 161 17 184 30 51 101 66 144 31 23
-19 24 -24 27 -195 l3 -176 65 0 64 0 0 188 c0 175 -2 191 -22 232 -15 29 -35
51 -58 62 -40 20 -134 24 -165 6z"/>
<path d="M8213 4610 c-60 -34 -85 -66 -108 -138 -38 -115 6 -248 100 -307 45
-28 56 -30 140 -30 83 0 95 2 134 28 43 29 81 79 81 110 0 14 -9 17 -55 17
-41 0 -57 -4 -62 -15 -9 -24 -58 -45 -104 -45 -33 0 -47 6 -75 34 -21 21 -34
44 -34 60 l0 26 170 0 170 0 0 50 c0 27 -9 73 -20 103 -36 95 -102 137 -217
137 -57 0 -76 -5 -120 -30z m183 -88 c25 -19 44 -53 44 -76 0 -14 -16 -16
-105 -16 -88 0 -105 2 -105 15 0 24 28 73 47 84 28 16 96 12 119 -7z"/>
<path d="M8763 4616 c-139 -65 -177 -286 -69 -404 54 -59 105 -82 184 -82 73
0 124 19 168 61 30 29 72 105 63 113 -2 2 -30 6 -62 8 -54 4 -59 3 -68 -19
-11 -29 -65 -63 -102 -63 -17 0 -41 12 -65 34 l-37 34 0 86 c0 83 1 87 32 118
26 26 41 33 72 33 42 0 86 -31 101 -70 6 -15 18 -20 63 -22 31 -1 59 2 62 8
21 32 -61 150 -122 176 -54 22 -160 17 -220 -11z"/>
<path d="M5570 4385 l0 -245 65 0 65 0 0 245 0 245 -65 0 -65 0 0 -245z"/>
<path d="M6784 3936 c-10 -26 4 -48 28 -44 17 2 23 10 23 28 0 18 -6 26 -23
28 -13 2 -25 -3 -28 -12z"/>
<path d="M9150 3760 l0 -190 25 0 25 0 0 190 0 190 -25 0 -25 0 0 -190z"/>
<path d="M5584 3931 c-27 -12 -54 -49 -54 -76 0 -11 9 -34 19 -52 l20 -31 -27
-18 c-40 -26 -51 -45 -52 -85 0 -47 31 -86 78 -99 43 -11 102 1 122 25 17 20
26 19 50 -5 12 -12 33 -20 51 -20 l32 0 -37 34 c-20 19 -36 37 -36 39 0 3 9
24 20 48 11 24 20 50 20 57 0 19 -40 14 -46 -5 -3 -10 -10 -29 -15 -42 l-10
-25 -42 43 c-38 37 -40 43 -24 52 35 20 65 55 71 81 13 57 -76 106 -140 79z
m84 -48 c14 -29 -1 -67 -32 -78 -23 -8 -30 -6 -42 10 -8 10 -14 27 -14 36 0
42 70 67 88 32z m-24 -190 l46 -48 -21 -17 c-31 -26 -94 -24 -113 4 -9 12 -16
33 -16 45 0 23 32 63 49 63 6 0 30 -21 55 -47z"/>
<path d="M3750 3751 l0 -181 78 0 c145 1 205 53 205 180 0 76 -18 118 -66 154
-23 17 -46 22 -123 24 l-94 4 0 -181z m202 100 c24 -27 28 -40 28 -89 0 -95
-35 -135 -127 -146 l-53 -7 0 142 0 142 62 -6 c54 -5 67 -10 90 -36z"/>
<path d="M5990 3751 l0 -181 28 0 29 0 -1 68 -1 67 71 5 c82 6 108 22 123 78
13 46 4 86 -26 114 -22 20 -36 23 -124 26 l-99 4 0 -181z m184 120 c22 -18 21
-84 -1 -103 -10 -9 -41 -18 -70 -20 -61 -6 -63 -3 -63 84 l0 60 59 -4 c33 -2
66 -10 75 -17z"/>
<path d="M7850 3750 l0 -180 25 0 c24 0 25 2 25 65 l0 65 38 0 c61 1 113 17
140 44 20 20 26 35 26 76 1 46 -3 55 -32 81 -31 28 -36 29 -127 29 l-95 0 0
-180z m178 124 c26 -18 30 -69 8 -99 -12 -17 -110 -39 -128 -28 -5 2 -8 35 -8
74 l0 69 53 0 c31 0 61 -6 75 -16z"/>
<path d="M4700 3880 c0 -33 -3 -40 -20 -40 -13 0 -20 -7 -20 -20 0 -13 7 -20
20 -20 19 0 20 -7 20 -93 0 -117 12 -139 73 -135 30 2 43 8 45 20 2 12 -5 17
-30 20 l-33 3 -3 92 -3 92 33 3 c45 4 45 32 1 36 -31 3 -33 6 -33 43 0 35 -3
39 -25 39 -22 0 -25 -4 -25 -40z"/>
<path d="M6617 3913 c-4 -3 -7 -21 -7 -40 0 -26 -4 -33 -20 -33 -13 0 -20 -7
-20 -20 0 -13 7 -20 20 -20 19 0 20 -7 20 -98 0 -116 10 -132 78 -132 35 0 42
3 42 19 0 15 -8 21 -32 23 l-33 3 -3 92 -3 92 33 3 c22 2 34 9 36 21 3 14 -4
17 -32 17 -35 0 -36 1 -36 40 0 32 -4 40 -18 40 -10 0 -22 -3 -25 -7z"/>
<path d="M7530 3880 c0 -33 -3 -40 -20 -40 -13 0 -20 -7 -20 -20 0 -13 7 -20
20 -20 19 0 20 -7 20 -93 0 -116 11 -137 76 -137 37 0 44 3 44 19 0 15 -8 21
-32 23 l-33 3 -3 93 -3 92 36 0 c28 0 35 4 35 20 0 16 -7 20 -35 20 -34 0 -35
1 -35 40 0 36 -2 40 -25 40 -22 0 -25 -4 -25 -40z"/>
<path d="M8697 3913 c-4 -3 -7 -21 -7 -40 0 -26 -4 -33 -20 -33 -13 0 -20 -7
-20 -20 0 -13 7 -20 20 -20 19 0 20 -7 20 -98 0 -116 11 -136 76 -130 52 4 61
35 12 40 l-33 3 -3 93 -3 92 36 0 c29 0 36 3 33 18 -2 11 -14 18 -36 20 -30 3
-32 6 -32 43 0 31 -4 39 -18 39 -10 0 -22 -3 -25 -7z"/>
<path d="M4153 3831 c-59 -37 -80 -121 -49 -195 20 -48 51 -66 114 -66 45 0
58 4 82 28 85 85 41 237 -72 249 -31 3 -52 -1 -75 -16z m120 -53 c11 -13 17
-37 17 -68 0 -63 -28 -100 -75 -100 -75 0 -104 112 -45 172 25 24 36 29 58 24
15 -4 35 -16 45 -28z"/>
<path d="M4452 3830 c-77 -47 -82 -183 -8 -242 25 -21 113 -24 136 -5 19 14
50 58 50 69 0 18 -44 6 -62 -17 -24 -31 -77 -34 -102 -6 -22 24 -31 88 -17
123 5 15 22 34 36 44 21 14 30 14 54 4 16 -6 32 -18 35 -26 3 -8 15 -14 26
-14 33 0 21 40 -19 67 -42 28 -86 29 -129 3z"/>
<path d="M4922 3830 c-78 -48 -84 -193 -10 -244 28 -20 100 -21 137 -1 69 35
82 168 24 227 -41 40 -104 48 -151 18z m109 -49 c58 -59 28 -171 -46 -171
-103 0 -100 194 3 199 8 1 27 -12 43 -28z"/>
<path d="M5263 3840 c-12 -5 -26 -17 -32 -27 -10 -16 -10 -16 -11 5 0 17 -6
22 -25 22 l-25 0 0 -135 0 -135 24 0 c24 0 24 2 28 96 3 86 5 98 27 115 13 10
34 19 47 19 19 0 24 5 24 25 0 27 -17 31 -57 15z"/>
<path d="M6360 3843 c-24 -9 -60 -45 -60 -60 0 -19 40 -16 55 4 25 34 105 13
105 -28 0 -19 -12 -24 -82 -34 -86 -11 -124 -80 -73 -130 29 -30 97 -34 134
-9 22 16 24 16 33 0 11 -20 58 -22 58 -2 0 8 -4 18 -10 21 -5 3 -10 46 -10 95
0 78 -3 92 -23 115 -17 20 -34 28 -67 31 -25 2 -52 1 -60 -3z m100 -162 c0
-52 -49 -88 -95 -71 -70 27 -27 84 68 89 20 1 27 -4 27 -18z"/>
<path d="M6968 3834 c-35 -18 -68 -82 -68 -129 0 -50 33 -110 69 -125 58 -24
127 -11 158 29 31 40 -8 59 -42 21 -28 -31 -88 -27 -114 6 -38 49 -31 54 80
54 l101 0 -7 43 c-10 56 -20 74 -58 97 -38 23 -82 25 -119 4z m110 -51 c6 -9
12 -25 12 -35 0 -16 -9 -18 -70 -18 -43 0 -70 4 -70 11 0 6 14 24 30 41 25 24
36 29 58 23 15 -3 33 -13 40 -22z"/>
<path d="M7293 3830 c-27 -16 -33 -17 -33 -5 0 9 -10 15 -25 15 l-25 0 0 -135
0 -135 25 0 c25 0 25 0 25 93 0 114 12 137 70 137 53 0 60 -17 60 -134 0 -96
0 -96 25 -96 25 0 25 0 25 94 0 110 -12 151 -51 171 -37 20 -58 19 -96 -5z"/>
<path d="M8225 3836 c-53 -24 -69 -51 -73 -125 -4 -65 -3 -68 31 -104 30 -32
40 -37 81 -37 26 0 60 7 75 15 73 37 81 178 13 238 -27 24 -89 31 -127 13z
m104 -64 c20 -22 22 -33 18 -76 -5 -57 -31 -86 -78 -86 -43 0 -69 31 -69 85 0
104 67 145 129 77z"/>
<path d="M8534 3825 c-30 -30 -34 -31 -27 -5 4 16 0 20 -21 20 l-26 0 0 -135
0 -135 25 0 c25 0 25 1 25 90 0 83 2 93 25 115 13 14 36 25 50 25 20 0 25 5
25 25 0 20 -5 25 -25 25 -14 0 -37 -11 -51 -25z"/>
<path d="M8914 3841 c-21 -9 -54 -48 -54 -63 0 -16 41 -8 69 13 26 19 32 20
57 7 34 -16 44 -54 17 -61 -10 -3 -38 -8 -63 -12 -69 -9 -107 -50 -94 -100 13
-53 97 -75 151 -40 24 16 27 16 35 1 10 -18 53 -22 64 -5 4 7 -1 16 -10 21
-13 7 -16 26 -16 102 0 85 -2 94 -24 115 -27 26 -97 37 -132 22z m106 -164 c0
-41 -27 -67 -71 -67 -32 0 -41 4 -48 23 -14 37 22 65 87 66 27 1 32 -3 32 -22z"/>
<path d="M6780 3705 l0 -135 25 0 25 0 0 135 0 135 -25 0 -25 0 0 -135z"/>
</g>
</svg>
