<?xml version="1.0" encoding="iso-8859-1"?>
<!-- Uploaded to: SVG Repo, www.svgrepo.com, Generator: SVG Repo Mixer Tools -->
<!DOCTYPE svg PUBLIC "-//W3C//DTD SVG 1.1//EN" "http://www.w3.org/Graphics/SVG/1.1/DTD/svg11.dtd">
<svg fill="#000000" version="1.1" id="Capa_1" xmlns="http://www.w3.org/2000/svg" xmlns:xlink="http://www.w3.org/1999/xlink" 
	 width="800px" height="800px" viewBox="0 0 98.051 98.051"
	 xml:space="preserve">
<g>
	<g>
		<path d="M49.003,22.741c5.757,0,10.427-4.668,10.427-10.427c0-2.409-0.836-4.609-2.209-6.371h-3.373V4.359H55.7
			c-0.648-0.544-1.354-1.025-2.121-1.401C52.786,1.218,51.04,0,49.006,0c-2.032,0-3.776,1.216-4.57,2.954
			c-0.771,0.377-1.478,0.858-2.128,1.405h2.117v1.583h-3.637c-1.374,1.762-2.209,3.962-2.209,6.371
			C38.577,18.072,43.244,22.741,49.003,22.741z M49.006,2.201c1.562,0,2.833,1.271,2.833,2.833s-1.271,2.833-2.833,2.833
			s-2.833-1.271-2.833-2.833S47.444,2.201,49.006,2.201z"/>
		<path d="M46.485,23.316c-0.009,0.003-0.019,0.006-0.027,0.007c-1.055,0.252-2.08,0.68-3.039,1.226
			c0.572,4.377,3.098,8.342,5.586,8.342c2.492,0,5.022-3.98,5.587-8.367c-0.945-0.526-1.961-0.924-2.99-1.178l-2.598,2.615
			L46.485,23.316z"/>
		<path d="M56.14,25.454c-0.752,4.4-3.234,8.521-6.447,9.045c-0.489,2.384,0.358,3.345,1.348,4.424
			c1.805,1.968,2.836,3.836-0.299,8.997c0.221,0.331,0.352,0.729,0.352,1.156c0,1.154-0.936,2.089-2.088,2.089
			c-1.154,0-2.088-0.935-2.088-2.089c0-1.152,0.935-2.087,2.088-2.087c0.114,0,0.224,0.016,0.333,0.034
			c2.732-4.479,1.728-5.601,0.471-6.97c-1.06-1.155-2.35-2.574-1.812-5.625c-3.034-0.73-5.368-4.662-6.116-8.875
			c-0.092,0.044-0.186,0.083-0.274,0.14c-0.51,0.329-12.486,8.276-12.486,27.866c0,2.047,1.66,3.707,3.707,3.707
			c2.047,0,3.707-1.66,3.707-3.707c0-4.451,0.744-9.598,1.795-12.569v9.112l-3.792,21.43h4.327l0.003,21.736
			c0,2.643,2.142,4.785,4.783,4.783c2.643,0,4.783-2.143,4.783-4.783l-0.001-21.736h0.681l-0.001,21.736
			c0,2.643,2.143,4.783,4.783,4.783c2.645,0,4.785-2.143,4.785-4.783l0.002-21.736h4.255l-3.261-21.25v-9.4
			c1.41,3.245,1.84,7.811,1.84,13.193c0,2.047,1.66,3.707,3.707,3.707c2.048,0,3.707-1.66,3.707-3.707
			C68.933,34.093,58.653,26.839,56.14,25.454z"/>
	</g>
</g>
</svg>